<?xml version="1.0" encoding="utf-8"?>
<svg width="49.76" height="52" viewBox="0 0 49.76 52" fill="none" xmlns="http://www.w3.org/2000/svg">
  <g>
    <rect width="49.76" height="52" />
    <path id="Vector" d="M0 0L4.4 14.3333C24.5067 19.64 34.4 17.7067 48.6933 8.13334C32.7333 15.1333 14.96 10.4 0 0L0 0Z" fill="#F7D161" fill-rule="evenodd" transform="translate(0 16.613)" />
    <path id="Vector" d="M24.8533 12.4267C24.8533 5.56 19.2933 0 12.4267 0C5.56 0 0 5.56 0 12.4267C0 19.2933 5.56 24.8533 12.4267 24.8533C19.2933 24.8533 24.8533 19.28 24.8533 12.4267L24.8533 12.4267Z" fill="#BB4F3B" fill-rule="evenodd" transform="translate(11.92 1.267)" />
    <path id="Vector" d="M9.53857 0L2.8319 0.706667C-1.1681 8.46667 -0.808097 12.3067 3.13857 17.8933C0.591904 11.68 3.28524 5.73333 9.53857 0L9.53857 0Z" fill="#F7D161" fill-rule="evenodd" transform="translate(15.648 4.893)" />
    <path id="Vector" d="M0 0L1.62667 0L1.62667 1.98667L3.33333 0L5.49333 0L3.57333 1.98667L5.57333 5.26667L3.57333 5.26667L2.46667 3.10667L1.62667 3.98667L1.62667 5.26667L0 5.26667L0 0L0 0ZM6.09333 0L8.22667 0L9.05333 3.2L9.88 0L12.0133 0L12.0133 5.25333L10.68 5.25333L10.68 1.24L9.65333 5.25333L8.45333 5.25333L7.42667 1.24L7.42667 5.25333L6.09333 5.25333L6.09333 0L6.09333 0ZM13.0533 0L17.08 0L17.08 1.13333L14.68 1.13333L14.68 2.05333L16.72 2.05333L16.72 3.12L14.68 3.12L14.68 5.26667L13.0533 5.26667L13.0533 0L13.0533 0ZM25.9067 6.4L24.6 6.4L24.6 5.25333L21.24 5.25333L21.24 6.4L19.9333 6.4L19.9333 4.04L20.48 4.04C20.7867 3.18667 20.9333 2.24 20.9333 1.17333L20.9333 0L25.3333 0L25.3333 4.04L25.9067 4.04L25.9067 6.4L25.9067 6.4ZM26.5333 0L30.88 0L30.88 1.12L28.16 1.12L28.16 1.96L30.68 1.96L30.68 3.02667L28.16 3.02667L28.16 4.06667L30.96 4.06667L30.96 5.25333L26.5333 5.25333L26.5333 0L26.5333 0ZM31.8267 0L33.96 0L34.7867 3.2L35.6133 0L37.7467 0L37.7467 5.25333L36.4133 5.25333L36.4133 1.24L35.3867 5.25333L34.1867 5.25333L33.16 1.24L33.16 5.25333L31.8267 5.25333L31.8267 0L31.8267 0ZM38.7733 0L43.12 0L43.12 1.12L40.4 1.12L40.4 1.96L42.9333 1.96L42.9333 3.02667L40.4 3.02667L40.4 4.06667L43.2 4.06667L43.2 5.25333L38.7733 5.25333L38.7733 0L38.7733 0ZM43.5867 0L45.3467 0L46.08 2.16L46.8 0L48.4533 0L46.72 4.06667C46.5733 4.4 46.4533 4.64 46.3467 4.8C46.24 4.96 46.08 5.09333 45.88 5.2C45.68 5.30667 45.3867 5.36 45.0267 5.36C44.84 5.36 44.5067 5.33333 44.04 5.28L44.04 4.18667C44.32 4.21333 44.52 4.22667 44.64 4.22667C45.0133 4.22667 45.24 4.09333 45.32 3.81333L43.5867 0L43.5867 0ZM23.7067 4.05333L23.7067 1.29334L22.4 1.29334L22.4 1.36C22.4 2.09334 22.28 2.98667 22.0267 4.05333L23.7067 4.05333L23.7067 4.05333ZM17.56 2.77333L19.68 2.77333L19.68 3.90667L17.56 3.90667L17.56 2.77333L17.56 2.77333Z" fill="#000000" fill-rule="evenodd" transform="translate(0.12 38.867)" />
    <path id="Vector" d="M41.68 2.4L41.68 1.25333L40.9741 1.25333C40.9447 1.81333 40.8565 2.18667 40.68 2.4L41.68 2.4L41.68 2.4ZM41.8933 2.82667L40.3733 2.82667L40.3733 3.36L39.9467 3.36L39.9467 2.4L40.16 2.4C40.2533 2.29333 40.32 2.14667 40.3867 1.92C40.44 1.70667 40.48 1.33333 40.4933 0.813335L42.12 0.813335L42.12 2.4L42.3333 2.4L42.3333 3.37333L41.8933 3.37333L41.8933 2.82667L41.8933 2.82667ZM37.8533 0.813335L38.3867 0.813335L38.3867 1.54667L39.1467 1.54667L39.1467 0.813335L39.68 0.813335L39.68 2.82667L39.1467 2.82667L39.1467 1.98667L38.3867 1.98667L38.3867 2.82667L37.8533 2.82667L37.8533 0.813335L37.8533 0.813335ZM35.9333 1.82667C35.9333 2.02667 35.9874 2.17333 36.082 2.28C36.1765 2.38667 36.2982 2.44 36.4334 2.44C36.5685 2.44 36.6901 2.38667 36.7846 2.28C36.8793 2.17333 36.9333 2.01333 36.9333 1.81333C36.9333 1.61333 36.8793 1.46667 36.7846 1.36C36.6901 1.25333 36.5685 1.2 36.4334 1.2C36.2982 1.2 36.1765 1.25333 36.082 1.36C35.9738 1.46667 35.9333 1.62667 35.9333 1.82667L35.9333 1.82667ZM35.3867 1.8C35.3867 1.62667 35.4267 1.45333 35.52 1.28C35.6133 1.12 35.7333 0.986664 35.8933 0.906666C36.0533 0.813332 36.2267 0.773331 36.4267 0.773331C36.7333 0.773331 36.9867 0.866669 37.1733 1.06667C37.3733 1.26667 37.4667 1.52 37.4667 1.81333C37.4667 2.12 37.3733 2.37333 37.1733 2.57333C36.9733 2.77333 36.7333 2.88 36.4267 2.88C36.24 2.88 36.0667 2.84 35.8933 2.76C35.72 2.68 35.6 2.56 35.5067 2.38667C35.4267 2.22667 35.3867 2.02667 35.3867 1.8L35.3867 1.8ZM33.6267 2.04L33.6267 0.799999C33.2667 0.799999 33.0067 0.853336 32.8667 0.960003C32.7067 1.06667 32.6267 1.22667 32.6267 1.44C32.6267 1.84 32.9666 2.04 33.6267 2.04L33.6267 2.04ZM33.84 2.04C34.06 2.04 34.24 2.01333 34.3999 1.96C34.56 1.90667 34.68 1.84 34.74 1.76C34.8 1.68 34.84 1.56 34.84 1.4C34.84 1 34.5 0.799999 33.84 0.799999L33.84 2.04L33.84 2.04ZM33.84 2.50666L33.84 2.82667L33.2933 2.82667L33.2933 2.50666C32.8533 2.49333 32.5333 2.38666 32.3467 2.17333C32.16 1.97333 32.0667 1.72 32.0667 1.41333C32.0667 1.09333 32.16 0.839996 32.3467 0.639999C32.5333 0.439999 32.8533 0.346664 33.28 0.32L33.28 0.0399971L33.8267 0.0399971L33.8267 0.32C34.2667 0.333332 34.5867 0.439999 34.76 0.639999C34.9467 0.839996 35.04 1.09333 35.04 1.4C35.04 1.70667 34.9467 1.96 34.76 2.16C34.6 2.38667 34.2933 2.49333 33.84 2.50666L33.84 2.50666ZM29.9867 0L30.24 0C30.2267 0.317074 30.16 0.560974 30.0533 0.731709C29.9467 0.902439 29.8133 1 29.64 1C29.4667 1 29.3333 0.902439 29.2267 0.731709C29.12 0.560974 29.0667 0.317074 29.04 0L29.3067 0C29.32 0.170731 29.3467 0.292683 29.4 0.365852C29.4533 0.439026 29.5333 0.487804 29.64 0.487804C29.7467 0.487804 29.8267 0.439026 29.88 0.365852C29.9467 0.292683 29.9733 0.170731 29.9867 0L29.9867 0ZM28.7067 0.813335L29.2133 0.813335L29.2133 2.08L30.0267 0.813335L30.5467 0.813335L30.5467 2.82667L30.04 2.82667L30.04 1.53333L29.2133 2.82667L28.7067 2.82667L28.7067 0.813335L28.7067 0.813335ZM27.6533 0.813335L28.6533 0.813335L28.6533 2.82667L27.6533 2.82667L27.6533 0.813335L27.6533 0.813335ZM25.9467 2.97333L26.5159 2.97333C26.6698 2.97333 26.7775 2.92206 26.839 2.84514C26.9005 2.76822 26.9467 2.64 26.9467 2.46052C26.9467 2.28102 26.9005 2.15283 26.8082 2.0759C26.7159 1.99899 26.5621 1.97333 26.3467 1.97333L25.9467 1.97333L25.9467 2.97333L25.9467 2.97333ZM25.4133 0.813335L25.9467 0.813335L25.9467 1.65333L26.48 1.65333C26.6933 1.65333 26.8533 1.66667 26.96 1.69333C27.0667 1.72 27.16 1.78667 27.24 1.89333C27.32 1.98667 27.36 2.10666 27.36 2.24C27.36 2.44 27.2933 2.58667 27.16 2.68C27.0267 2.77333 26.8267 2.82667 26.56 2.82667L25.4267 2.82667L25.4267 0.813335L25.4133 0.813335L25.4133 0.813335ZM23.04 0.813335L23.5733 0.813335L23.5733 1.54667L24.3333 1.54667L24.3333 0.813335L24.8667 0.813335L24.8667 2.82667L24.3333 2.82667L24.3333 1.98667L23.5733 1.98667L23.5733 2.82667L23.04 2.82667L23.04 0.813335L23.04 0.813335ZM21.2133 2.98667L21.7056 2.98667C21.8749 2.98667 22.0133 2.96036 22.0902 2.88141C22.1672 2.80246 22.2133 2.67088 22.2133 2.48667C22.2133 2.30244 22.1672 2.17088 22.0748 2.09193C21.9825 2.01298 21.7979 1.98667 21.5364 1.98667L21.2288 1.98667L21.2288 2.98667L21.2133 2.98667L21.2133 2.98667ZM21.2161 2.14667L21.6355 2.14667C21.829 2.14667 21.9742 2.09405 22.0709 2.0151C22.1677 1.93615 22.2 1.80457 22.2 1.62036C22.2 1.46246 22.1516 1.33088 22.0709 1.25193C21.9903 1.17298 21.8451 1.14667 21.6194 1.14667L21.2 1.14667L21.2 2.14667L21.2161 2.14667L21.2161 2.14667ZM20.68 0.813335L21.8533 0.813335C22.0933 0.813335 22.2667 0.853333 22.3867 0.946667C22.5067 1.04 22.56 1.16 22.56 1.34667C22.56 1.45333 22.5333 1.56 22.4667 1.64C22.4 1.72 22.32 1.77333 22.2267 1.81333C22.36 1.85333 22.4667 1.90667 22.5333 2C22.6 2.09333 22.64 2.2 22.64 2.30666C22.64 2.46666 22.5867 2.58667 22.4667 2.69333C22.3467 2.78667 22.1867 2.84 21.96 2.84L20.6933 2.84L20.6933 0.813335L20.68 0.813335L20.68 0.813335ZM18.2667 0.813335L18.7733 0.813335L18.7733 2.08L19.5867 0.813335L20.1067 0.813335L20.1067 2.82667L19.6 2.82667L19.6 1.53333L18.7733 2.82667L18.2667 2.82667L18.2667 0.813335L18.2667 0.813335ZM16.1467 0.813335L17.9733 0.813335L17.9733 1.24L17.32 1.24L17.32 2.82667L16.7867 2.82667L16.7867 1.24L16.1467 1.24L16.1467 0.813335L16.1467 0.813335ZM15.595 1.86667C15.5042 1.90833 15.3587 1.95 15.1587 1.99167C14.9588 2.03333 14.8315 2.09583 14.7588 2.1375C14.6678 2.22083 14.6133 2.30418 14.6133 2.42918C14.6133 2.55418 14.6497 2.63751 14.7224 2.74168C14.7952 2.82501 14.886 2.86667 15.0134 2.86667C15.1406 2.86667 15.2678 2.82501 15.3951 2.72084C15.4859 2.63751 15.5405 2.55416 15.5769 2.45001C15.595 2.3875 15.6133 2.24168 15.6133 2.05417L15.6133 1.86667L15.595 1.86667L15.595 1.86667ZM14.6133 1.42667L14.1333 1.33333C14.1867 1.13333 14.28 0.999996 14.4133 0.906666C14.5467 0.813332 14.7467 0.760002 15 0.760002C15.24 0.760002 15.4133 0.786667 15.5333 0.839996C15.6533 0.893333 15.7333 0.973331 15.7733 1.05333C15.8267 1.14667 15.84 1.29333 15.84 1.53333L15.84 2.16C15.84 2.33333 15.8533 2.46667 15.8667 2.54667C15.88 2.62667 15.92 2.72 15.96 2.81333L15.4267 2.81333C15.4133 2.77333 15.4 2.72 15.3733 2.65333C15.36 2.62667 15.36 2.6 15.36 2.58667C15.2667 2.68 15.1733 2.74667 15.0667 2.78667C14.96 2.82667 14.8533 2.85333 14.7333 2.85333C14.52 2.85333 14.36 2.8 14.24 2.68C14.12 2.57333 14.0667 2.42667 14.0667 2.25333C14.0667 2.13333 14.0933 2.04 14.1467 1.94667C14.2 1.85333 14.28 1.78667 14.3733 1.74667C14.4667 1.69333 14.6133 1.65333 14.8 1.62667C15.0533 1.58667 15.2267 1.53333 15.32 1.49333L15.32 1.46667C15.32 1.36 15.2933 1.29333 15.24 1.25333C15.1867 1.21333 15.0933 1.18667 14.96 1.18667C14.8667 1.18667 14.7867 1.2 14.7333 1.24C14.6933 1.26666 14.6533 1.33333 14.6133 1.42667L14.6133 1.42667ZM12.36 1.78667C12.36 2.01333 12.4048 2.18667 12.5092 2.29333C12.6138 2.4 12.7331 2.45333 12.8824 2.45333C13.0168 2.45333 13.1361 2.4 13.2257 2.30666C13.3152 2.21333 13.36 2.04 13.36 1.81333C13.36 1.6 13.3152 1.44 13.2108 1.34667C13.1212 1.24 13.0018 1.2 12.8526 1.2C12.7033 1.2 12.5839 1.25333 12.4943 1.34667C12.4048 1.44 12.36 1.6 12.36 1.78667L12.36 1.78667ZM11.8267 0.813335L12.32 0.813335L12.32 1.10667C12.3867 0.999996 12.4667 0.919998 12.5867 0.853333C12.6933 0.786667 12.8133 0.760002 12.9467 0.760002C13.1867 0.760002 13.3733 0.853333 13.5467 1.04C13.7067 1.22667 13.7867 1.48 13.7867 1.81333C13.7867 2.14667 13.7067 2.41333 13.5467 2.6C13.3867 2.78667 13.1867 2.88 12.9467 2.88C12.84 2.88 12.7333 2.85333 12.64 2.81333C12.5467 2.77333 12.4533 2.69333 12.36 2.58667L12.36 3.6L11.8267 3.6L11.8267 0.813335L11.8267 0.813335ZM9.89333 1.82667C9.89333 2.02667 9.94739 2.17333 10.042 2.28C10.1365 2.38667 10.2582 2.44 10.3934 2.44C10.5285 2.44 10.6501 2.38667 10.7446 2.28C10.8393 2.17333 10.8933 2.01333 10.8933 1.81333C10.8933 1.61333 10.8393 1.46667 10.7446 1.36C10.6501 1.25333 10.5285 1.2 10.3934 1.2C10.2582 1.2 10.1365 1.25333 10.042 1.36C9.94739 1.46667 9.89333 1.62667 9.89333 1.82667L9.89333 1.82667ZM9.34667 1.8C9.34667 1.62667 9.38667 1.45333 9.48 1.28C9.57333 1.12 9.69333 0.986664 9.85333 0.906666C10.0133 0.813332 10.1867 0.773331 10.3867 0.773331C10.6933 0.773331 10.9467 0.866669 11.1333 1.06667C11.3333 1.26667 11.4267 1.52 11.4267 1.81333C11.4267 2.12 11.3333 2.37333 11.1333 2.57333C10.9333 2.77333 10.6933 2.88 10.3867 2.88C10.2 2.88 10.0267 2.84 9.85333 2.76C9.68 2.68 9.56 2.56 9.46667 2.38667C9.38667 2.22667 9.34667 2.02667 9.34667 1.8L9.34667 1.8ZM7.10667 0.813335L8.89333 0.813335L8.89333 2.82667L8.36 2.82667L8.36 1.24L7.64 1.24L7.64 2.82667L7.10667 2.82667L7.10667 0.813335L7.10667 0.813335ZM5.26667 1.78667C5.26667 2.01333 5.31145 2.18667 5.41592 2.29333C5.5204 2.4 5.6398 2.45333 5.78905 2.45333C5.92338 2.45333 6.04279 2.4 6.13234 2.30666C6.22189 2.21333 6.26667 2.04 6.26667 1.81333C6.26667 1.6 6.22189 1.44 6.11742 1.34667C6.02787 1.24 5.90846 1.2 5.75921 1.2C5.60995 1.2 5.49055 1.25333 5.401 1.34667C5.31145 1.44 5.26667 1.6 5.26667 1.78667L5.26667 1.78667ZM4.73333 0.813335L5.22667 0.813335L5.22667 1.10667C5.29333 0.999996 5.37333 0.919998 5.49333 0.853333C5.6 0.786667 5.72 0.760002 5.86667 0.760002C6.10667 0.760002 6.29333 0.853333 6.46667 1.04C6.62667 1.22667 6.70667 1.48 6.70667 1.81333C6.70667 2.14667 6.62667 2.41333 6.46667 2.6C6.30667 2.78667 6.10667 2.88 5.86667 2.88C5.76 2.88 5.65333 2.85333 5.56 2.81333C5.46667 2.77333 5.37333 2.69333 5.28 2.58667L5.28 3.6L4.74667 3.6L4.74667 0.813335L4.73333 0.813335L4.73333 0.813335ZM2.8 1.82667C2.8 2.02667 2.85405 2.17333 2.94865 2.28C3.04324 2.38667 3.16486 2.44 3.3 2.44C3.43514 2.44 3.55676 2.38667 3.65135 2.28C3.74594 2.17333 3.8 2.01333 3.8 1.81333C3.8 1.61333 3.74594 1.46667 3.65135 1.36C3.55676 1.25333 3.43514 1.2 3.3 1.2C3.16486 1.2 3.04324 1.25333 2.94865 1.36C2.85405 1.46667 2.8 1.62667 2.8 1.82667L2.8 1.82667ZM2.25333 1.8C2.25333 1.62667 2.29333 1.45333 2.38667 1.28C2.48 1.12 2.6 0.986664 2.76 0.906666C2.92 0.813332 3.09333 0.773331 3.29333 0.773331C3.6 0.773331 3.85333 0.866669 4.04 1.06667C4.24 1.26667 4.33333 1.52 4.33333 1.81333C4.33333 2.12 4.24 2.37333 4.04 2.57333C3.84 2.77333 3.6 2.88 3.29333 2.88C3.10667 2.88 2.93333 2.84 2.76 2.76C2.58667 2.68 2.46667 2.56 2.37333 2.38667C2.29333 2.22667 2.25333 2.02667 2.25333 1.8L2.25333 1.8ZM0.0133333 0.0533333L0.573333 0.0533333L0.573333 1.24C0.693333 1.22667 0.786666 1.2 0.826666 1.14667C0.866666 1.09333 0.933333 0.946667 1.02667 0.719997C1.14667 0.41333 1.26667 0.226669 1.37333 0.160004C1.49333 0.0800018 1.68 0.0533333 1.93333 0.0533333C1.94667 0.0533333 1.97333 0.0533333 2.01333 0.0533333L2.01333 0.466667L1.93333 0.466667C1.81333 0.466667 1.73333 0.48 1.68 0.506664C1.62667 0.533333 1.58667 0.573334 1.54667 0.639999C1.52 0.693333 1.46667 0.813332 1.4 1C1.36 1.09333 1.33333 1.17333 1.29333 1.24C1.25333 1.30666 1.18667 1.36 1.08 1.42667C1.2 1.46667 1.30667 1.53333 1.38667 1.64C1.46667 1.74666 1.56 1.89333 1.65333 2.09333L2.02667 2.85333L1.37333 2.85333L1.04 2.13333C1.04 2.12 1.02667 2.10667 1.01333 2.08C1.01333 2.06667 0.986667 2.02667 0.946667 1.94667C0.88 1.81333 0.813333 1.72 0.773333 1.69333C0.733333 1.65333 0.653333 1.64 0.56 1.64L0.56 2.85333L0 2.85333L0 0.0533333L0.0133333 0.0533333L0.0133333 0.0533333Z" fill="#000000" transform="translate(2.28 48.4)" />
  </g>
</svg>