<svg width="10" height="17" viewBox="0 0 10 17" fill="none" xmlns="http://www.w3.org/2000/svg">
<path d="M8.85278 0.503294L6.85399 0.5C4.60842 0.5 3.15723 2.02942 3.15723 4.3966V6.1932H1.14754C0.973881 6.1932 0.833252 6.33782 0.833252 6.51621V9.11928C0.833252 9.29767 0.974041 9.44213 1.14754 9.44213H3.15723V16.0105C3.15723 16.1889 3.29786 16.3333 3.47152 16.3333H6.0936C6.26726 16.3333 6.40789 16.1887 6.40789 16.0105V9.44213H8.75769C8.93135 9.44213 9.07198 9.29767 9.07198 9.11928L9.07294 6.51621C9.07294 6.43056 9.03975 6.34853 8.9809 6.28791C8.92205 6.2273 8.84187 6.1932 8.75849 6.1932H6.40789V4.6702C6.40789 3.93819 6.5777 3.56658 7.50598 3.56658L8.85246 3.56609C9.02596 3.56609 9.16658 3.42147 9.16658 3.24324V0.826145C9.16658 0.648083 9.02612 0.503624 8.85278 0.503294Z" fill="#9D097C"/>
</svg>
