<svg width="16" height="16" viewBox="0 0 16 16" fill="none" xmlns="http://www.w3.org/2000/svg">
<path fill-rule="evenodd" clip-rule="evenodd" d="M0.916748 7.99984C0.916748 6.52799 0.916748 5.79207 1.05673 5.18353C1.52884 3.13118 3.13142 1.5286 5.18377 1.05649C5.79231 0.916504 6.52824 0.916504 8.00008 0.916504C9.47193 0.916504 10.2079 0.916504 10.8164 1.05649C12.8687 1.5286 14.4713 3.13118 14.9434 5.18353C15.0834 5.79207 15.0834 6.52799 15.0834 7.99984C15.0834 9.47168 15.0834 10.2076 14.9434 10.8161C14.4713 12.8685 12.8687 14.4711 10.8164 14.9432C10.2079 15.0832 9.47193 15.0832 8.00008 15.0832C6.52824 15.0832 5.79231 15.0832 5.18377 14.9432C3.13142 14.4711 1.52884 12.8685 1.05673 10.8161C0.916748 10.2076 0.916748 9.47168 0.916748 7.99984ZM8.00008 4.24984C5.92914 4.24984 4.25008 5.9289 4.25008 7.99984C4.25008 10.0708 5.92914 11.7498 8.00008 11.7498C10.071 11.7498 11.7501 10.0708 11.7501 7.99984C11.7501 5.9289 10.071 4.24984 8.00008 4.24984ZM8.00008 10.3436C6.70821 10.3436 5.65633 9.29171 5.65633 7.99984C5.65633 6.70702 6.70821 5.65609 8.00008 5.65609C9.29196 5.65609 10.3438 6.70702 10.3438 7.99984C10.3438 9.29171 9.29196 10.3436 8.00008 10.3436ZM12.531 3.96859C12.531 4.24456 12.3073 4.46828 12.0313 4.46828C11.7554 4.46828 11.5317 4.24456 11.5317 3.96859C11.5317 3.69262 11.7554 3.4689 12.0313 3.4689C12.3073 3.4689 12.531 3.69262 12.531 3.96859Z" fill="#9D097C"/>
</svg>
